<svg width="18" height="18" viewBox="0 0 18 18" fill="none" xmlns="http://www.w3.org/2000/svg">
<path d="M12.9844 0L18 5.01562V15.9844C18 16.5469 17.7969 17.0312 17.3906 17.4375C17.0156 17.8125 16.5469 18 15.9844 18H2.01562C1.45312 18 0.96875 17.8125 0.5625 17.4375C0.1875 17.0312 0 16.5469 0 15.9844V2.01562C0 1.45312 0.1875 0.984375 0.5625 0.609375C0.96875 0.203125 1.45312 0 2.01562 0H12.9844ZM3.98438 3.98438V6H9V3.98438H3.98438ZM14.0156 14.0156V12H3.98438V14.0156H14.0156ZM14.0156 9.98438V8.01562H3.98438V9.98438H14.0156ZM12 6H15.9844L12 2.01562V6Z" fill="#2D2D2D"/>
</svg>
